name rise49.8558peak67.6521fall70.3087.mot
datacolumns 19
datarows 24
range 10.71995900000000 10.75832100000000
endheader
time	ground_force1_vx	ground_force1_vy	ground_force1_vz	ground_force1_px	ground_force1_py	ground_force1_pz	ground_force2_vx	ground_force2_vy	ground_force2_vz	ground_force2_px	ground_force2_py	ground_force2_pz	ground_torque1_x	ground_torque1_y	ground_torque1_z	ground_torque2_x	ground_torque2_y	ground_torque2_z	
10.71995900000000	12.43193800000000	710.21123899999998	45.76450500000000	0.31029000000000	0.00000000000000	0.11271800000000	0.00000000000000	0.00000000000000	0.00000000000000	0.00000000000000	0.00000000000000	0.00000000000000	0.00000000000000	24.81749900000000	0.00000000000000	0.00000000000000	0.00000000000000	0.00000000000000	
10.72162900000000	12.18521400000000	709.93879000000004	45.68019100000000	0.30940600000000	0.00000000000000	0.11262500000000	0.00000000000000	0.00000000000000	0.00000000000000	0.00000000000000	0.00000000000000	0.00000000000000	0.00000000000000	24.76969100000000	0.00000000000000	0.00000000000000	0.00000000000000	0.00000000000000	
10.72331200000000	11.93846200000000	709.71407999999997	45.60176900000000	0.30855600000000	0.00000000000000	0.11253200000000	0.00000000000000	0.00000000000000	0.00000000000000	0.00000000000000	0.00000000000000	0.00000000000000	0.00000000000000	24.72824100000000	0.00000000000000	0.00000000000000	0.00000000000000	0.00000000000000	
10.72496400000000	11.69129100000000	709.53604099999995	45.52900100000000	0.30773900000000	0.00000000000000	0.11243800000000	0.00000000000000	0.00000000000000	0.00000000000000	0.00000000000000	0.00000000000000	0.00000000000000	0.00000000000000	24.69302800000000	0.00000000000000	0.00000000000000	0.00000000000000	0.00000000000000	
10.72662400000000	11.44330000000000	709.40354100000002	45.46165000000000	0.30695600000000	0.00000000000000	0.11234300000000	0.00000000000000	0.00000000000000	0.00000000000000	0.00000000000000	0.00000000000000	0.00000000000000	0.00000000000000	24.66392900000000	0.00000000000000	0.00000000000000	0.00000000000000	0.00000000000000	
10.72829700000000	11.19407500000000	709.31539599999996	45.39948000000000	0.30620500000000	0.00000000000000	0.11224800000000	0.00000000000000	0.00000000000000	0.00000000000000	0.00000000000000	0.00000000000000	0.00000000000000	0.00000000000000	24.64082000000000	0.00000000000000	0.00000000000000	0.00000000000000	0.00000000000000	
10.72996000000000	10.94319400000000	709.27037099999995	45.34225600000000	0.30548400000000	0.00000000000000	0.11215100000000	0.00000000000000	0.00000000000000	0.00000000000000	0.00000000000000	0.00000000000000	0.00000000000000	0.00000000000000	24.62357900000000	0.00000000000000	0.00000000000000	0.00000000000000	0.00000000000000	
10.73163000000000	10.69022500000000	709.26719300000002	45.28974700000000	0.30479400000000	0.00000000000000	0.11205400000000	0.00000000000000	0.00000000000000	0.00000000000000	0.00000000000000	0.00000000000000	0.00000000000000	0.00000000000000	24.61208000000000	0.00000000000000	0.00000000000000	0.00000000000000	0.00000000000000	
10.73329700000000	10.43473100000000	709.30455300000006	45.24172500000000	0.30413300000000	0.00000000000000	0.11195700000000	0.00000000000000	0.00000000000000	0.00000000000000	0.00000000000000	0.00000000000000	0.00000000000000	0.00000000000000	24.60620000000000	0.00000000000000	0.00000000000000	0.00000000000000	0.00000000000000	
10.73495500000000	10.17626700000000	709.38111400000003	45.19796500000000	0.30349800000000	0.00000000000000	0.11185900000000	0.00000000000000	0.00000000000000	0.00000000000000	0.00000000000000	0.00000000000000	0.00000000000000	0.00000000000000	24.60581400000000	0.00000000000000	0.00000000000000	0.00000000000000	0.00000000000000	
10.73662500000000	9.91438500000000	709.49552300000005	45.15824900000000	0.30289000000000	0.00000000000000	0.11176100000000	0.00000000000000	0.00000000000000	0.00000000000000	0.00000000000000	0.00000000000000	0.00000000000000	0.00000000000000	24.61080000000000	0.00000000000000	0.00000000000000	0.00000000000000	0.00000000000000	
10.73830000000000	9.64863300000000	709.64641099999994	45.12236500000000	0.30230700000000	0.00000000000000	0.11166200000000	0.00000000000000	0.00000000000000	0.00000000000000	0.00000000000000	0.00000000000000	0.00000000000000	0.00000000000000	24.62103700000000	0.00000000000000	0.00000000000000	0.00000000000000	0.00000000000000	
10.73996200000000	9.37855600000000	709.83240400000000	45.09010400000000	0.30174600000000	0.00000000000000	0.11156300000000	0.00000000000000	0.00000000000000	0.00000000000000	0.00000000000000	0.00000000000000	0.00000000000000	0.00000000000000	24.63640200000000	0.00000000000000	0.00000000000000	0.00000000000000	0.00000000000000	
10.74162900000000	9.10370300000000	710.05213000000003	45.06126800000000	0.30120700000000	0.00000000000000	0.11146400000000	0.00000000000000	0.00000000000000	0.00000000000000	0.00000000000000	0.00000000000000	0.00000000000000	0.00000000000000	24.65677800000000	0.00000000000000	0.00000000000000	0.00000000000000	0.00000000000000	
10.74330100000000	8.82362000000000	710.30422299999998	45.03566400000000	0.30068800000000	0.00000000000000	0.11136400000000	0.00000000000000	0.00000000000000	0.00000000000000	0.00000000000000	0.00000000000000	0.00000000000000	0.00000000000000	24.68204600000000	0.00000000000000	0.00000000000000	0.00000000000000	0.00000000000000	
10.74496200000000	8.53785800000000	710.58733199999995	45.01310800000000	0.30018600000000	0.00000000000000	0.11126500000000	0.00000000000000	0.00000000000000	0.00000000000000	0.00000000000000	0.00000000000000	0.00000000000000	0.00000000000000	24.71209100000000	0.00000000000000	0.00000000000000	0.00000000000000	0.00000000000000	
10.74662400000000	8.24597500000000	710.90012800000000	44.99342400000000	0.29970100000000	0.00000000000000	0.11116500000000	0.00000000000000	0.00000000000000	0.00000000000000	0.00000000000000	0.00000000000000	0.00000000000000	0.00000000000000	24.74679700000000	0.00000000000000	0.00000000000000	0.00000000000000	0.00000000000000	
10.74829900000000	7.94753300000000	711.24130800000000	44.97644500000000	0.29922900000000	0.00000000000000	0.11106600000000	0.00000000000000	0.00000000000000	0.00000000000000	0.00000000000000	0.00000000000000	0.00000000000000	0.00000000000000	24.78605200000000	0.00000000000000	0.00000000000000	0.00000000000000	0.00000000000000	
10.74996300000000	7.64210300000000	711.60960000000000	44.96201100000000	0.29877000000000	0.00000000000000	0.11096600000000	0.00000000000000	0.00000000000000	0.00000000000000	0.00000000000000	0.00000000000000	0.00000000000000	0.00000000000000	24.82974300000000	0.00000000000000	0.00000000000000	0.00000000000000	0.00000000000000	
10.75162100000000	7.32926600000000	712.00377500000002	44.94997300000000	0.29832200000000	0.00000000000000	0.11086700000000	0.00000000000000	0.00000000000000	0.00000000000000	0.00000000000000	0.00000000000000	0.00000000000000	0.00000000000000	24.87776100000000	0.00000000000000	0.00000000000000	0.00000000000000	0.00000000000000	
10.75329900000000	7.00861600000000	712.42264399999999	44.94018900000000	0.29788200000000	0.00000000000000	0.11076800000000	0.00000000000000	0.00000000000000	0.00000000000000	0.00000000000000	0.00000000000000	0.00000000000000	0.00000000000000	24.92999600000000	0.00000000000000	0.00000000000000	0.00000000000000	0.00000000000000	
10.75495700000000	6.67975900000000	712.86506899999995	44.93253000000000	0.29744900000000	0.00000000000000	0.11067000000000	0.00000000000000	0.00000000000000	0.00000000000000	0.00000000000000	0.00000000000000	0.00000000000000	0.00000000000000	24.98634200000000	0.00000000000000	0.00000000000000	0.00000000000000	0.00000000000000	
10.75662200000000	6.34231800000000	713.32996700000001	44.92687100000000	0.29702100000000	0.00000000000000	0.11057200000000	0.00000000000000	0.00000000000000	0.00000000000000	0.00000000000000	0.00000000000000	0.00000000000000	0.00000000000000	25.04669300000000	0.00000000000000	0.00000000000000	0.00000000000000	0.00000000000000	
10.75832100000000	5.99593300000000	713.81631200000004	44.92310000000000	0.29659600000000	0.00000000000000	0.11047400000000	0.00000000000000	0.00000000000000	0.00000000000000	0.00000000000000	0.00000000000000	0.00000000000000	0.00000000000000	25.11094100000000	0.00000000000000	0.00000000000000	0.00000000000000	0.00000000000000	
